<svg xmlns="http://www.w3.org/2000/svg"><symbol id="twitter" viewBox="0 0 50 50"><path fill="#fff" stroke="#fff" stroke-miterlimit="10" stroke-width="2" d="M34.2 5.5a10.8 10.8 0 0 0-10.8 10.8c0 .4.1.7.1 1.1A27.2 27.2 0 0 1 5.1 7.7a.9.9 0 0 0-.8-.4.8.8 0 0 0-.8.5A10.2 10.2 0 0 0 2 13.2a11 11 0 0 0 2.2 6.4l-.8-.3a1 1 0 0 0-1.3.4c-.1.2-.2.3-.2.5a10.8 10.8 0 0 0 4.8 8.9h-.1a1 1 0 0 0-1.2.8v.4a10.9 10.9 0 0 0 7.5 7.1 18.2 18.2 0 0 1-9.6 2.7H1.1a.9.9 0 0 0-1 .6.9.9 0 0 0 .4 1.2 28.7 28.7 0 0 0 15.6 4.6A28.3 28.3 0 0 0 37.7 37a29.9 29.9 0 0 0 7.4-19.5v-.9a19.9 19.9 0 0 0 4.7-4.9 1.1 1.1 0 0 0 0-1.3 1.1 1.1 0 0 0-1.2-.2l-1.7.4a8.5 8.5 0 0 0 1.7-3.1 1.1 1.1 0 0 0-.3-1.1 1.1 1.1 0 0 0-1.1-.1 16 16 0 0 1-5.6 2.2 11 11 0 0 0-7.4-3zm0 2a8.9 8.9 0 0 1 6.5 2.8 1.4 1.4 0 0 0 .9.3 24 24 0 0 0 3.8-1.2 8.5 8.5 0 0 1-2.6 2.4 1 1 0 0 0-.5 1.2 1.1 1.1 0 0 0 1.2.7l2.8-.8a22.6 22.6 0 0 1-2.8 2.5.9.9 0 0 0-.4.8v1.3a28.5 28.5 0 0 1-6.9 18.2 26 26 0 0 1-20.1 8.8 27.8 27.8 0 0 1-11.2-2.4 22 22 0 0 0 11.3-4.3 1 1 0 1 0 0-2l-.6.2a8.7 8.7 0 0 1-7.5-4.7h.1a9.2 9.2 0 0 0 2.9-.4 1 1 0 0 0 .7-1 .9.9 0 0 0-.8-.9 8.7 8.7 0 0 1-6.8-7.2 10.7 10.7 0 0 0 3.1.6 1 1 0 0 0 1.1-.9 1.1 1.1 0 0 0-.5-.9A9.1 9.1 0 0 1 4 13.2a8.8 8.8 0 0 1 .7-3.2 28.9 28.9 0 0 0 19.9 9.6 1.2 1.2 0 0 0 .8-.4.9.9 0 0 0 .2-.9 12.3 12.3 0 0 1-.2-2 8.7 8.7 0 0 1 8.8-8.8z"/></symbol><symbol id="instagram" viewBox="0 0 50 50"><path fill="#fff" d="M47.9 15.5a16.3 16.3 0 0 0-1.1-5.6 10.9 10.9 0 0 0-2.7-4 10.9 10.9 0 0 0-4-2.7 19.1 19.1 0 0 0-5.6-1.1h-19A15.2 15.2 0 0 0 10 3.2a10.5 10.5 0 0 0-4.1 2.7 10.9 10.9 0 0 0-2.7 4 19.4 19.4 0 0 0-1 5.6C2 18 2 18.8 2 25s0 7 .1 9.5a19.1 19.1 0 0 0 1.1 5.6 10.9 10.9 0 0 0 2.7 4 10.9 10.9 0 0 0 4 2.7 19.1 19.1 0 0 0 5.6 1.1h19a19.1 19.1 0 0 0 5.6-1.1 12.2 12.2 0 0 0 6.7-6.7 19.1 19.1 0 0 0 1.1-5.6c.1-2.5.1-3.3.1-9.5s0-7-.1-9.5zm-4.2 18.8a11.1 11.1 0 0 1-.8 4.3 7 7 0 0 1-4.3 4.3 13.4 13.4 0 0 1-4.3.8c-2.4.1-3.1.2-9.3.2s-6.9-.1-9.3-.2a12.7 12.7 0 0 1-4.2-.8 6.5 6.5 0 0 1-2.7-1.7 7.8 7.8 0 0 1-1.7-2.6 13.4 13.4 0 0 1-.8-4.3c-.1-2.4-.1-3.1-.1-9.3s0-6.9.1-9.3a12.7 12.7 0 0 1 .8-4.2 9.5 9.5 0 0 1 1.7-2.7 9.5 9.5 0 0 1 2.7-1.7 12.7 12.7 0 0 1 4.2-.8h18.6a12.8 12.8 0 0 1 4.3.8 7.8 7.8 0 0 1 2.6 1.7 6.5 6.5 0 0 1 1.7 2.7 10.5 10.5 0 0 1 .8 4.2c.1 2.5.2 3.2.2 9.3s-.1 6.9-.2 9.3z"/><path fill="#fff" d="M25 13.2A11.8 11.8 0 1 0 36.8 25 11.8 11.8 0 0 0 25 13.2zm0 19.5a7.7 7.7 0 1 1 7.7-7.7 7.8 7.8 0 0 1-7.7 7.7zm15-20a2.8 2.8 0 0 1-2.7 2.8 2.9 2.9 0 0 1-2.8-2.8 2.8 2.8 0 0 1 2.8-2.7 2.7 2.7 0 0 1 2.7 2.7z"/></symbol><symbol id="instagram" viewBox="0 0 50 50"><path fill="#fff" d="M47.9 15.5a16.3 16.3 0 0 0-1.1-5.6 10.9 10.9 0 0 0-2.7-4 10.9 10.9 0 0 0-4-2.7 19.1 19.1 0 0 0-5.6-1.1h-19A15.2 15.2 0 0 0 10 3.2a10.5 10.5 0 0 0-4.1 2.7 10.9 10.9 0 0 0-2.7 4 19.4 19.4 0 0 0-1 5.6C2 18 2 18.8 2 25s0 7 .1 9.5a19.1 19.1 0 0 0 1.1 5.6 10.9 10.9 0 0 0 2.7 4 10.9 10.9 0 0 0 4 2.7 19.1 19.1 0 0 0 5.6 1.1h19a19.1 19.1 0 0 0 5.6-1.1 12.2 12.2 0 0 0 6.7-6.7 19.1 19.1 0 0 0 1.1-5.6c.1-2.5.1-3.3.1-9.5s0-7-.1-9.5zm-4.2 18.8a11.1 11.1 0 0 1-.8 4.3 7 7 0 0 1-4.3 4.3 13.4 13.4 0 0 1-4.3.8c-2.4.1-3.1.2-9.3.2s-6.9-.1-9.3-.2a12.7 12.7 0 0 1-4.2-.8 6.5 6.5 0 0 1-2.7-1.7 7.8 7.8 0 0 1-1.7-2.6 13.4 13.4 0 0 1-.8-4.3c-.1-2.4-.1-3.1-.1-9.3s0-6.9.1-9.3a12.7 12.7 0 0 1 .8-4.2 9.5 9.5 0 0 1 1.7-2.7 9.5 9.5 0 0 1 2.7-1.7 12.7 12.7 0 0 1 4.2-.8h18.6a12.8 12.8 0 0 1 4.3.8 7.8 7.8 0 0 1 2.6 1.7 6.5 6.5 0 0 1 1.7 2.7 10.5 10.5 0 0 1 .8 4.2c.1 2.5.2 3.2.2 9.3s-.1 6.9-.2 9.3z"/><path fill="#fff" d="M25 13.2A11.8 11.8 0 1 0 36.8 25 11.8 11.8 0 0 0 25 13.2zm0 19.5a7.7 7.7 0 1 1 7.7-7.7 7.8 7.8 0 0 1-7.7 7.7zm15-20a2.8 2.8 0 0 1-2.7 2.8 2.9 2.9 0 0 1-2.8-2.8 2.8 2.8 0 0 1 2.8-2.7 2.7 2.7 0 0 1 2.7 2.7z"/></symbol><symbol id="twitter" viewBox="0 0 50 50"><path fill="#fff" stroke="#fff" stroke-miterlimit="10" stroke-width="2" d="M34.2 5.5a10.8 10.8 0 0 0-10.8 10.8c0 .4.1.7.1 1.1A27.2 27.2 0 0 1 5.1 7.7a.9.9 0 0 0-.8-.4.8.8 0 0 0-.8.5A10.2 10.2 0 0 0 2 13.2a11 11 0 0 0 2.2 6.4l-.8-.3a1 1 0 0 0-1.3.4c-.1.2-.2.3-.2.5a10.8 10.8 0 0 0 4.8 8.9h-.1a1 1 0 0 0-1.2.8v.4a10.9 10.9 0 0 0 7.5 7.1 18.2 18.2 0 0 1-9.6 2.7H1.1a.9.9 0 0 0-1 .6.9.9 0 0 0 .4 1.2 28.7 28.7 0 0 0 15.6 4.6A28.3 28.3 0 0 0 37.7 37a29.9 29.9 0 0 0 7.4-19.5v-.9a19.9 19.9 0 0 0 4.7-4.9 1.1 1.1 0 0 0 0-1.3 1.1 1.1 0 0 0-1.2-.2l-1.7.4a8.5 8.5 0 0 0 1.7-3.1 1.1 1.1 0 0 0-.3-1.1 1.1 1.1 0 0 0-1.1-.1 16 16 0 0 1-5.6 2.2 11 11 0 0 0-7.4-3zm0 2a8.9 8.9 0 0 1 6.5 2.8 1.4 1.4 0 0 0 .9.3 24 24 0 0 0 3.8-1.2 8.5 8.5 0 0 1-2.6 2.4 1 1 0 0 0-.5 1.2 1.1 1.1 0 0 0 1.2.7l2.8-.8a22.6 22.6 0 0 1-2.8 2.5.9.9 0 0 0-.4.8v1.3a28.5 28.5 0 0 1-6.9 18.2 26 26 0 0 1-20.1 8.8 27.8 27.8 0 0 1-11.2-2.4 22 22 0 0 0 11.3-4.3 1 1 0 1 0 0-2l-.6.2a8.7 8.7 0 0 1-7.5-4.7h.1a9.2 9.2 0 0 0 2.9-.4 1 1 0 0 0 .7-1 .9.9 0 0 0-.8-.9 8.7 8.7 0 0 1-6.8-7.2 10.7 10.7 0 0 0 3.1.6 1 1 0 0 0 1.1-.9 1.1 1.1 0 0 0-.5-.9A9.1 9.1 0 0 1 4 13.2a8.8 8.8 0 0 1 .7-3.2 28.9 28.9 0 0 0 19.9 9.6 1.2 1.2 0 0 0 .8-.4.9.9 0 0 0 .2-.9 12.3 12.3 0 0 1-.2-2 8.7 8.7 0 0 1 8.8-8.8z"/></symbol><symbol id="instagram" viewBox="0 0 50 50"><path fill="#fff" d="M47.9 15.5a16.3 16.3 0 0 0-1.1-5.6 10.9 10.9 0 0 0-2.7-4 10.9 10.9 0 0 0-4-2.7 19.1 19.1 0 0 0-5.6-1.1h-19A15.2 15.2 0 0 0 10 3.2a10.5 10.5 0 0 0-4.1 2.7 10.9 10.9 0 0 0-2.7 4 19.4 19.4 0 0 0-1 5.6C2 18 2 18.8 2 25s0 7 .1 9.5a19.1 19.1 0 0 0 1.1 5.6 10.9 10.9 0 0 0 2.7 4 10.9 10.9 0 0 0 4 2.7 19.1 19.1 0 0 0 5.6 1.1h19a19.1 19.1 0 0 0 5.6-1.1 12.2 12.2 0 0 0 6.7-6.7 19.1 19.1 0 0 0 1.1-5.6c.1-2.5.1-3.3.1-9.5s0-7-.1-9.5zm-4.2 18.8a11.1 11.1 0 0 1-.8 4.3 7 7 0 0 1-4.3 4.3 13.4 13.4 0 0 1-4.3.8c-2.4.1-3.1.2-9.3.2s-6.9-.1-9.3-.2a12.7 12.7 0 0 1-4.2-.8 6.5 6.5 0 0 1-2.7-1.7 7.8 7.8 0 0 1-1.7-2.6 13.4 13.4 0 0 1-.8-4.3c-.1-2.4-.1-3.1-.1-9.3s0-6.9.1-9.3a12.7 12.7 0 0 1 .8-4.2 9.5 9.5 0 0 1 1.7-2.7 9.5 9.5 0 0 1 2.7-1.7 12.7 12.7 0 0 1 4.2-.8h18.6a12.8 12.8 0 0 1 4.3.8 7.8 7.8 0 0 1 2.6 1.7 6.5 6.5 0 0 1 1.7 2.7 10.5 10.5 0 0 1 .8 4.2c.1 2.5.2 3.2.2 9.3s-.1 6.9-.2 9.3z"/><path fill="#fff" d="M25 13.2A11.8 11.8 0 1 0 36.8 25 11.8 11.8 0 0 0 25 13.2zm0 19.5a7.7 7.7 0 1 1 7.7-7.7 7.8 7.8 0 0 1-7.7 7.7zm15-20a2.8 2.8 0 0 1-2.7 2.8 2.9 2.9 0 0 1-2.8-2.8 2.8 2.8 0 0 1 2.8-2.7 2.7 2.7 0 0 1 2.7 2.7z"/></symbol></svg>